<svg width="272px" height="79px" viewbox="0 0 272 79" version="1.1" xmlnsXlink="http://www.w3.org/1999/xlink" xmlns="http://www.w3.org/2000/svg">
  <defs>
    <linearGradient x1="0.91846704" y1="0.5" x2="0.07936165" y2="0.7853973" id="gradient_1">
      <stop offset="0" stop-color="#599DF4" />
      <stop offset="1" stop-color="#007EFF" />
    </linearGradient>
    <linearGradient x1="0.99999875" y1="0.64046645" x2="-0.821246" y2="-0.019932872" id="gradient_2">
      <stop offset="0" stop-color="#017FFF" />
      <stop offset="1" stop-color="#599DF4" />
    </linearGradient>
    <linearGradient x1="0.9999996" y1="0.19075038" x2="-0.728956" y2="0.70087993" id="gradient_3">
      <stop offset="0" stop-color="#007EFF" />
      <stop offset="1" stop-color="#599DF4" />
    </linearGradient>
  </defs>
  <g id="Group-2">
    <g fill="url(#gradient_1)" stroke="none" id="Yonkes">
      <path d="M130.797 61.9063L139.391 61.9063L139.391 57.625L145.328 49.75L152.109 61.9063L161.922 61.9063L150.828 42.4375L161.922 28.5L152.109 28.5L139.391 44.625L139.391 15.125L130.797 15.125L130.797 61.9063ZM28.4031 47.875L28.4031 61.9063L37.3406 61.9063L37.3406 47.875Q40.3094 47.125 42.7781 45.4688Q45.2469 43.8125 47.0281 41.5156Q48.8094 39.2188 49.7938 36.4219Q50.7781 33.625 50.7781 30.5313L50.7781 17.0938L41.8406 17.0938L41.8406 30.5313Q41.8406 32.375 41.1375 34.0156Q40.4344 35.6563 39.2156 36.875Q37.9969 38.0938 36.3563 38.7969Q34.7156 39.5 32.8719 39.5Q31.0281 39.5 29.3875 38.7969Q27.7469 38.0938 26.5281 36.875Q25.3094 35.6563 24.6063 34.0156Q23.9031 32.375 23.9031 30.5313L23.9031 17.0938L14.9344 17.0938L14.9344 30.5313Q14.9344 33.625 15.9188 36.4219Q16.9031 39.2188 18.6844 41.5156Q20.4656 43.8125 22.95 45.4688Q25.4344 47.125 28.4031 47.875ZM87.5656 51.8594Q88.9094 48.625 88.9094 44.875Q88.9094 40.875 87.5656 37.6094Q86.2219 34.3438 83.9094 32.0156Q81.5969 29.6875 78.4875 28.4219Q75.3781 27.1563 71.8156 27.1563Q68.2844 27.1563 65.175 28.5Q62.0656 29.8438 59.7375 32.2031Q57.4094 34.5625 56.0656 37.8125Q54.7219 41.0625 54.7219 44.875Q54.7219 48.625 56.0656 51.8594Q57.4094 55.0938 59.7375 57.4531Q62.0656 59.8125 65.175 61.1719Q68.2844 62.5313 71.8156 62.5313Q75.3781 62.5313 78.4875 61.1719Q81.5969 59.8125 83.9094 57.4531Q86.2219 55.0938 87.5656 51.8594ZM179.209 53.7188Q179.709 53.875 180.209 53.9219Q180.709 53.9688 181.209 53.9688Q182.459 53.9688 183.616 53.625Q184.772 53.2813 185.788 52.6406Q186.803 52 187.6 51.0781Q188.397 50.1563 188.897 49.0313L195.147 55.3125Q193.959 57 192.413 58.3438Q190.866 59.6875 189.069 60.625Q187.272 61.5625 185.288 62.0469Q183.303 62.5313 181.209 62.5313Q177.678 62.5313 174.569 61.2188Q171.459 59.9063 169.131 57.5625Q166.803 55.2188 165.459 51.9844Q164.116 48.75 164.116 44.875Q164.116 40.9063 165.459 37.625Q166.803 34.3438 169.131 32.0313Q171.459 29.7188 174.569 28.4375Q177.678 27.1563 181.209 27.1563Q183.303 27.1563 185.303 27.6563Q187.303 28.1563 189.1 29.0938Q190.897 30.0313 192.459 31.3906Q194.022 32.75 195.209 34.4375L179.209 53.7188ZM102.759 61.9063L94.2281 61.9063L94.2281 28.4375L96.2906 28.4375L99.1031 31.6875Q101.166 29.8125 103.775 28.7969Q106.384 27.7813 109.228 27.7813Q112.291 27.7813 115.009 28.9531Q117.728 30.125 119.759 32.1719Q121.791 34.2188 122.963 36.9531Q124.134 39.6875 124.134 42.7813L124.134 61.9063L115.603 61.9063L115.603 42.7813Q115.603 41.4688 115.103 40.2969Q114.603 39.125 113.728 38.25Q112.853 37.375 111.697 36.875Q110.541 36.375 109.228 36.375Q107.884 36.375 106.697 36.875Q105.509 37.375 104.634 38.25Q103.759 39.125 103.259 40.2969Q102.759 41.4688 102.759 42.7813L102.759 61.9063ZM198.966 61.9063L218.466 61.9063Q220.653 61.9063 222.591 61.0781Q224.528 60.25 225.966 58.7969Q227.403 57.3438 228.247 55.4219Q229.091 53.5 229.091 51.2813Q229.091 49.0938 228.247 47.25Q227.403 45.4063 225.966 44.0938Q224.528 42.7813 222.591 42.0469Q220.653 41.3125 218.466 41.3125L209.591 41.3125Q208.716 41.3125 208.091 40.6719Q207.466 40.0313 207.466 39.125Q207.466 38.25 208.091 37.625Q208.716 37 209.591 37L226.872 37L226.872 28.5L209.591 28.5Q207.372 28.5 205.434 29.3281Q203.497 30.1563 202.059 31.5938Q200.622 33.0313 199.794 34.9688Q198.966 36.9063 198.966 39.125Q198.966 41.3438 199.794 43.2813Q200.622 45.2188 202.059 46.6719Q203.497 48.125 205.434 48.9688Q207.372 49.8125 209.591 49.8125L218.466 49.8125Q219.341 49.8125 219.966 50.0938Q220.591 50.375 220.591 51.2813Q220.591 52.1563 219.966 52.7813Q219.341 53.4063 218.466 53.4063L198.966 53.4063L198.966 61.9063ZM79.6438 41.1406Q80.3156 42.8125 80.3156 44.875Q80.3156 46.9063 79.6438 48.5938Q78.9719 50.2813 77.8156 51.4688Q76.6594 52.6563 75.1125 53.3125Q73.5656 53.9688 71.8156 53.9688Q70.0656 53.9688 68.5188 53.2656Q66.9719 52.5625 65.8313 51.3438Q64.6906 50.125 64.0344 48.4688Q63.3781 46.8125 63.3781 44.875Q63.3781 42.8125 64.0344 41.1406Q64.6906 39.4688 65.8313 38.2656Q66.9719 37.0625 68.5188 36.4219Q70.0656 35.7813 71.8156 35.7813Q73.5656 35.7813 75.1125 36.4219Q76.6594 37.0625 77.8156 38.2656Q78.9719 39.4688 79.6438 41.1406ZM183.584 36.125Q182.991 35.9063 182.413 35.8438Q181.834 35.7813 181.209 35.7813Q179.459 35.7813 177.913 36.4219Q176.366 37.0625 175.225 38.25Q174.084 39.4375 173.428 41.1094Q172.772 42.7813 172.772 44.875Q172.772 45.3438 172.819 45.9375Q172.866 46.5313 172.975 47.1406Q173.084 47.75 173.241 48.3125Q173.397 48.875 173.647 49.3125L183.584 36.125Z" />
    </g>
    <g id="Group" transform="translate(237.00003 26)">
      <path d="M4.99909 8.48213e-05L6.01754 0.000102102Q6.14026 0.000104184 6.26283 0.00612764Q6.3854 0.0121511 6.50752 0.0241814Q6.62965 0.0362118 6.75104 0.05422Q6.87243 0.0722282 6.99279 0.0961709Q7.11315 0.120114 7.23218 0.149933Q7.35122 0.179753 7.46866 0.215377Q7.58609 0.251002 7.70163 0.292346Q7.81718 0.333689 7.93055 0.380652Q8.04393 0.427616 8.15486 0.480085Q8.26579 0.532555 8.37402 0.590405Q8.48225 0.648255 8.5875 0.711345Q8.69276 0.774435 8.7948 0.842615Q8.89683 0.910794 8.9954 0.983897Q9.09397 1.057 9.18883 1.13485Q9.28369 1.2127 9.37461 1.29512Q9.46554 1.37753 9.55231 1.4643Q9.63909 1.55108 9.7215 1.64201Q9.80391 1.73294 9.88176 1.8278Q9.95961 1.92266 10.0327 2.02123Q10.1058 2.1198 10.174 2.22183Q10.2422 2.32387 10.3053 2.42913Q10.3683 2.53438 10.4262 2.64261Q10.484 2.75084 10.5365 2.86177Q10.589 2.97271 10.6359 3.08609Q10.6829 3.19946 10.7242 3.31501Q10.7656 3.43055 10.8012 3.54798Q10.8368 3.66542 10.8666 3.78446Q10.8965 3.90349 10.9204 4.02385Q10.9443 4.14421 10.9624 4.2656Q10.9804 4.38699 10.9924 4.50912Q11.0044 4.63124 11.0104 4.75381Q11.0165 4.87638 11.0165 4.9991L11.0165 30.0003Q11.0165 30.123 11.0104 30.2456Q11.0044 30.3682 10.9924 30.4903Q10.9804 30.6124 10.9624 30.7338Q10.9444 30.8552 10.9204 30.9756Q10.8965 31.0959 10.8667 31.215Q10.8368 31.334 10.8012 31.4514Q10.7656 31.5689 10.7242 31.6844Q10.6829 31.8 10.6359 31.9133Q10.589 32.0267 10.5365 32.1377Q10.484 32.2486 10.4262 32.3568Q10.3683 32.465 10.3053 32.5703Q10.2422 32.6756 10.174 32.7776Q10.1058 32.8796 10.0327 32.9782Q9.9596 33.0768 9.88175 33.1716Q9.80389 33.2665 9.72148 33.3574Q9.63907 33.4484 9.55229 33.5351Q9.46552 33.6219 9.37459 33.7043Q9.28366 33.7867 9.1888 33.8646Q9.09394 33.9424 8.99537 34.0155Q8.8968 34.0886 8.79476 34.1568Q8.69273 34.225 8.58747 34.2881Q8.48221 34.3512 8.37398 34.409Q8.26575 34.4669 8.15482 34.5193Q8.04388 34.5718 7.9305 34.6188Q7.81712 34.6657 7.70158 34.7071Q7.58603 34.7484 7.4686 34.784Q7.35117 34.8197 7.23212 34.8495Q7.11308 34.8793 6.99272 34.9032Q6.87236 34.9272 6.75097 34.9452Q6.62958 34.9632 6.50745 34.9752Q6.38533 34.9873 6.26276 34.9933Q6.14018 34.9993 6.01747 34.9993L4.999 34.9993Q4.87628 34.9993 4.75371 34.9933Q4.63114 34.9873 4.50901 34.9752Q4.38689 34.9632 4.2655 34.9452Q4.14411 34.9272 4.02375 34.9032Q3.90339 34.8793 3.78434 34.8495Q3.6653 34.8197 3.54787 34.784Q3.43043 34.7484 3.31489 34.7071Q3.19934 34.6657 3.08597 34.6188Q2.97259 34.5718 2.86165 34.5193Q2.75072 34.4669 2.64249 34.409Q2.53426 34.3512 2.429 34.2881Q2.32374 34.225 2.22171 34.1568Q2.11967 34.0886 2.0211 34.0155Q1.92253 33.9424 1.82767 33.8646Q1.73281 33.7867 1.64188 33.7043Q1.55095 33.6219 1.46418 33.5351Q1.3774 33.4484 1.29499 33.3574Q1.21257 33.2665 1.13472 33.1716Q1.05687 33.0768 0.983768 32.9782Q0.910665 32.8796 0.842486 32.7776Q0.774307 32.6756 0.711217 32.5703Q0.648127 32.465 0.590278 32.3568Q0.532429 32.2486 0.47996 32.1377Q0.427491 32.0267 0.380529 31.9133Q0.333566 31.8 0.292224 31.6844Q0.250881 31.5689 0.215258 31.4514Q0.179634 31.334 0.149816 31.215Q0.119998 31.0959 0.0960569 30.9756Q0.0721157 30.8552 0.0541091 30.7338Q0.0361026 30.6124 0.024074 30.4903Q0.0120455 30.3682 0.00602399 30.2456Q2.46241e-06 30.123 2.45238e-06 30.0003L4.08651e-07 4.99909Q3.98619e-07 4.87637 0.00602203 4.75379Q0.0120437 4.63122 0.0240724 4.50909Q0.0361012 4.38696 0.0541081 4.26557Q0.0721151 4.14418 0.0960568 4.02382Q0.119998 3.90346 0.149817 3.78441Q0.179636 3.66537 0.21526 3.54794Q0.250884 3.4305 0.292228 3.31496Q0.333571 3.19941 0.380535 3.08603Q0.427498 2.97265 0.479968 2.86172Q0.532438 2.75078 0.590288 2.64255Q0.648139 2.53432 0.71123 2.42906Q0.774321 2.3238 0.842501 2.22176Q0.910681 2.11973 0.983786 2.02116Q1.05689 1.92259 1.13474 1.82772Q1.2126 1.73286 1.29501 1.64193Q1.37743 1.551 1.4642 1.46423Q1.55098 1.37745 1.64191 1.29504Q1.73284 1.21263 1.82771 1.13478Q1.92257 1.05692 2.02114 0.98382Q2.11971 0.910717 2.22175 0.842539Q2.32379 0.77436 2.42905 0.711271Q2.53431 0.648181 2.64254 0.590333Q2.75077 0.532484 2.86171 0.480016Q2.97265 0.427548 3.08602 0.380587Q3.1994 0.333625 3.31495 0.292284Q3.4305 0.250942 3.54793 0.21532Q3.66537 0.179698 3.78441 0.149881Q3.90345 0.120064 4.02382 0.0961247Q4.14418 0.0721851 4.26557 0.0541802Q4.38696 0.0361753 4.50909 0.0241486Q4.63122 0.0121219 4.75379 0.0061023Q4.87637 8.2739e-05 4.99909 8.48213e-05L4.99909 8.48213e-05Z" transform="matrix(7.8256065E-08 1 -1 7.8256065E-08 34.9993 12.516907)" id="Rectangle-4" fill="url(#gradient_2)" fill-rule="evenodd" stroke="none" />
      <path d="M4.999 2.28916e-05L6.0008 1.907e-05Q6.12352 1.86019e-05 6.24609 0.00603965Q6.36866 0.0120607 6.49079 0.0240888Q6.61292 0.0361168 6.7343 0.0541229Q6.8557 0.072129 6.97606 0.0960698Q7.09642 0.120011 7.21546 0.149828Q7.3345 0.179646 7.45193 0.215269Q7.56937 0.250892 7.68491 0.292234Q7.80046 0.333576 7.91384 0.380538Q8.02721 0.4275 8.13815 0.479969Q8.24909 0.532437 8.35732 0.590286Q8.46554 0.648135 8.5708 0.711224Q8.67606 0.774314 8.7781 0.842493Q8.88014 0.910671 8.97871 0.983774Q9.07727 1.05688 9.17214 1.13473Q9.267 1.21258 9.35793 1.29499Q9.44886 1.37741 9.53563 1.46418Q9.62241 1.55095 9.70482 1.64188Q9.78724 1.73281 9.86509 1.82767Q9.94294 1.92254 10.016 2.0211Q10.0891 2.11967 10.1573 2.22171Q10.2255 2.32375 10.2886 2.42901Q10.3517 2.53426 10.4095 2.64249Q10.4674 2.75072 10.5199 2.86166Q10.5723 2.97259 10.6193 3.08597Q10.6662 3.19935 10.7076 3.31489Q10.7489 3.43044 10.7846 3.54787Q10.8202 3.6653 10.85 3.78434Q10.8798 3.90339 10.9038 4.02375Q10.9277 4.14411 10.9457 4.2655Q10.9637 4.38689 10.9757 4.50902Q10.9878 4.63114 10.9938 4.75371Q10.9998 4.87628 10.9998 4.999L10.9999 31.0007Q10.9999 31.1234 10.9939 31.246Q10.9879 31.3685 10.9758 31.4907Q10.9638 31.6128 10.9458 31.7342Q10.9278 31.8556 10.9039 31.9759Q10.8799 32.0963 10.8501 32.2153Q10.8203 32.3344 10.7847 32.4518Q10.749 32.5692 10.7077 32.6848Q10.6663 32.8003 10.6194 32.9137Q10.5724 33.0271 10.52 33.138Q10.4675 33.249 10.4096 33.3572Q10.3518 33.4654 10.2887 33.5707Q10.2256 33.6759 10.1574 33.778Q10.0892 33.88 10.0161 33.9786Q9.94304 34.0771 9.86519 34.172Q9.78734 34.2669 9.70492 34.3578Q9.62251 34.4487 9.53574 34.5355Q9.44896 34.6223 9.35803 34.7047Q9.2671 34.7871 9.17224 34.865Q9.07738 34.9428 8.97881 35.0159Q8.88024 35.089 8.7782 35.1572Q8.67617 35.2254 8.57091 35.2885Q8.46565 35.3516 8.35742 35.4094Q8.24919 35.4672 8.13826 35.5197Q8.02732 35.5722 7.91394 35.6192Q7.80056 35.6661 7.68502 35.7075Q7.56948 35.7488 7.45204 35.7844Q7.33461 35.82 7.21556 35.8499Q7.09652 35.8797 6.97616 35.9036Q6.8558 35.9276 6.73441 35.9456Q6.61302 35.9636 6.49089 35.9756Q6.36876 35.9876 6.24619 35.9937Q6.12362 35.9997 6.0009 35.9997L4.99913 35.9997Q4.87641 35.9997 4.75384 35.9937Q4.63127 35.9876 4.50914 35.9756Q4.38701 35.9636 4.26562 35.9456Q4.14423 35.9276 4.02387 35.9036Q3.90351 35.8797 3.78447 35.8499Q3.66543 35.82 3.548 35.7844Q3.43056 35.7488 3.31502 35.7075Q3.19947 35.6661 3.0861 35.6192Q2.97272 35.5722 2.86178 35.5197Q2.75085 35.4673 2.64262 35.4094Q2.53439 35.3516 2.42913 35.2885Q2.32387 35.2254 2.22184 35.1572Q2.1198 35.089 2.02123 35.0159Q1.92266 34.9428 1.8278 34.865Q1.73294 34.7871 1.64201 34.7047Q1.55108 34.6223 1.46431 34.5355Q1.37753 34.4487 1.29512 34.3578Q1.21271 34.2669 1.13485 34.172Q1.057 34.0772 0.983899 33.9786Q0.910796 33.88 0.842617 33.778Q0.774438 33.6759 0.711348 33.5707Q0.648258 33.4654 0.590409 33.3572Q0.532559 33.249 0.48009 33.138Q0.427621 33.0271 0.380659 32.9137Q0.333696 32.8003 0.292353 32.6848Q0.25101 32.5693 0.215387 32.4518Q0.179763 32.3344 0.149944 32.2154Q0.120126 32.0963 0.0961843 31.9759Q0.0722428 31.8556 0.0542358 31.7342Q0.0362289 31.6128 0.0241999 31.4907Q0.0121709 31.3686 0.00614896 31.246Q0.000126972 31.1234 0.000126472 31.0007L2.03942e-05 4.99904Q1.98935e-05 4.87633 0.00604091 4.75375Q0.0120619 4.63118 0.02409 4.50906Q0.036118 4.38693 0.0541241 4.26554Q0.0721301 4.14415 0.0960708 4.02379Q0.120012 3.90343 0.149829 3.78438Q0.179647 3.66534 0.21527 3.54791Q0.250893 3.43047 0.292235 3.31493Q0.333577 3.19938 0.380539 3.08601Q0.427501 2.97263 0.479969 2.86169Q0.532438 2.75076 0.590287 2.64253Q0.648135 2.5343 0.711225 2.42904Q0.774314 2.32378 0.842493 2.22174Q0.910671 2.11971 0.983774 2.02114Q1.05688 1.92257 1.13473 1.82771Q1.21258 1.73284 1.29499 1.64191Q1.37741 1.55099 1.46418 1.46421Q1.55095 1.37743 1.64188 1.29502Q1.73281 1.21261 1.82767 1.13476Q1.92254 1.0569 2.0211 0.9838Q2.11967 0.910696 2.22171 0.842517Q2.32375 0.774338 2.429 0.711248Q2.53426 0.648157 2.64249 0.590308Q2.75072 0.532458 2.86165 0.479989Q2.97259 0.427519 3.08597 0.380557Q3.19934 0.333594 3.31489 0.292251Q3.43043 0.250908 3.54787 0.215284Q3.6653 0.17966 3.78434 0.149841Q3.90338 0.120023 4.02375 0.096081Q4.1441 0.0721393 4.2655 0.0541323Q4.38689 0.0361253 4.50901 0.0240963Q4.63114 0.0120673 4.75371 0.00604534Q4.87628 2.33598e-05 4.999 2.28916e-05L4.999 2.28916e-05Z" transform="matrix(-1 -8.466462E-08 8.466462E-08 -1 22.999084 35.99968)" id="Rectangle-3" fill="url(#gradient_3)" fill-rule="evenodd" stroke="none" />
    </g>
  </g>
</svg>