<?xml version="1.0" encoding="utf-8"?>
<svg width="260px" height="79px" viewbox="0 0 260 79" version="1.1" xmlns:xlink="http://www.w3.org/1999/xlink" xmlns="http://www.w3.org/2000/svg">
  <defs>
    <linearGradient x1="0.91846704" y1="0.5" x2="0.07936165" y2="0.7853973" id="gradient_1">
      <stop offset="0" stop-color="#599DF4" />
      <stop offset="1" stop-color="#007EFF" />
    </linearGradient>
    <linearGradient x1="0.99999875" y1="0.64046645" x2="-0.821246" y2="-0.019932872" id="gradient_2">
      <stop offset="0" stop-color="#017FFF" />
      <stop offset="1" stop-color="#599DF4" />
    </linearGradient>
    <linearGradient x1="0.9999996" y1="0.19075038" x2="-0.728956" y2="0.70087993" id="gradient_3">
      <stop offset="0" stop-color="#007EFF" />
      <stop offset="1" stop-color="#599DF4" />
    </linearGradient>
  </defs>
  <g id="Group-3">
    <g fill="url(#gradient_1)" stroke="none" id="Yonkes">
      <path d="M118.297 61.9063L126.891 61.9063L126.891 57.625L132.828 49.75L139.609 61.9063L149.422 61.9063L138.328 42.4375L149.422 28.5L139.609 28.5L126.891 44.625L126.891 15.125L118.297 15.125L118.297 61.9063ZM15.9031 47.875L15.9031 61.9063L24.8406 61.9063L24.8406 47.875Q27.8094 47.125 30.2781 45.4688Q32.7469 43.8125 34.5281 41.5156Q36.3094 39.2188 37.2937 36.4219Q38.2781 33.625 38.2781 30.5313L38.2781 17.0938L29.3406 17.0938L29.3406 30.5313Q29.3406 32.375 28.6375 34.0156Q27.9344 35.6563 26.7156 36.875Q25.4969 38.0938 23.8562 38.7969Q22.2156 39.5 20.3719 39.5Q18.5281 39.5 16.8875 38.7969Q15.2469 38.0938 14.0281 36.875Q12.8094 35.6563 12.1062 34.0156Q11.4031 32.375 11.4031 30.5313L11.4031 17.0938L2.43436 17.0938L2.43436 30.5313Q2.43436 33.625 3.41874 36.4219Q4.40311 39.2188 6.18436 41.5156Q7.96561 43.8125 10.45 45.4688Q12.9344 47.125 15.9031 47.875ZM75.0656 51.8594Q76.4094 48.625 76.4094 44.875Q76.4094 40.875 75.0656 37.6094Q73.7219 34.3438 71.4094 32.0156Q69.0969 29.6875 65.9875 28.4219Q62.8781 27.1563 59.3156 27.1563Q55.7844 27.1563 52.675 28.5Q49.5656 29.8438 47.2375 32.2031Q44.9094 34.5625 43.5656 37.8125Q42.2219 41.0625 42.2219 44.875Q42.2219 48.625 43.5656 51.8594Q44.9094 55.0938 47.2375 57.4531Q49.5656 59.8125 52.675 61.1719Q55.7844 62.5313 59.3156 62.5313Q62.8781 62.5313 65.9875 61.1719Q69.0969 59.8125 71.4094 57.4531Q73.7219 55.0938 75.0656 51.8594ZM166.709 53.7188Q167.209 53.875 167.709 53.9219Q168.209 53.9688 168.709 53.9688Q169.959 53.9688 171.116 53.625Q172.272 53.2813 173.287 52.6406Q174.303 52 175.1 51.0781Q175.897 50.1563 176.397 49.0313L182.647 55.3125Q181.459 57 179.912 58.3438Q178.366 59.6875 176.569 60.625Q174.772 61.5625 172.787 62.0469Q170.803 62.5313 168.709 62.5313Q165.178 62.5313 162.069 61.2188Q158.959 59.9063 156.631 57.5625Q154.303 55.2188 152.959 51.9844Q151.616 48.75 151.616 44.875Q151.616 40.9063 152.959 37.625Q154.303 34.3438 156.631 32.0313Q158.959 29.7188 162.069 28.4375Q165.178 27.1563 168.709 27.1563Q170.803 27.1563 172.803 27.6563Q174.803 28.1563 176.6 29.0938Q178.397 30.0313 179.959 31.3906Q181.522 32.75 182.709 34.4375L166.709 53.7188ZM90.2594 61.9063L81.7281 61.9063L81.7281 28.4375L83.7906 28.4375L86.6031 31.6875Q88.6656 29.8125 91.275 28.7969Q93.8844 27.7813 96.7281 27.7813Q99.7906 27.7813 102.509 28.9531Q105.228 30.125 107.259 32.1719Q109.291 34.2188 110.462 36.9531Q111.634 39.6875 111.634 42.7813L111.634 61.9063L103.103 61.9063L103.103 42.7813Q103.103 41.4688 102.603 40.2969Q102.103 39.125 101.228 38.25Q100.353 37.375 99.1969 36.875Q98.0406 36.375 96.7281 36.375Q95.3844 36.375 94.1969 36.875Q93.0094 37.375 92.1344 38.25Q91.2594 39.125 90.7594 40.2969Q90.2594 41.4688 90.2594 42.7813L90.2594 61.9063ZM186.466 61.9063L205.966 61.9063Q208.153 61.9063 210.091 61.0781Q212.028 60.25 213.466 58.7969Q214.903 57.3438 215.747 55.4219Q216.591 53.5 216.591 51.2813Q216.591 49.0938 215.747 47.25Q214.903 45.4063 213.466 44.0938Q212.028 42.7813 210.091 42.0469Q208.153 41.3125 205.966 41.3125L197.091 41.3125Q196.216 41.3125 195.591 40.6719Q194.966 40.0313 194.966 39.125Q194.966 38.25 195.591 37.625Q196.216 37 197.091 37L214.372 37L214.372 28.5L197.091 28.5Q194.872 28.5 192.934 29.3281Q190.997 30.1563 189.559 31.5938Q188.122 33.0313 187.294 34.9688Q186.466 36.9063 186.466 39.125Q186.466 41.3438 187.294 43.2813Q188.122 45.2188 189.559 46.6719Q190.997 48.125 192.934 48.9688Q194.872 49.8125 197.091 49.8125L205.966 49.8125Q206.841 49.8125 207.466 50.0938Q208.091 50.375 208.091 51.2813Q208.091 52.1563 207.466 52.7813Q206.841 53.4063 205.966 53.4063L186.466 53.4063L186.466 61.9063ZM67.1437 41.1406Q67.8156 42.8125 67.8156 44.875Q67.8156 46.9063 67.1437 48.5938Q66.4719 50.2813 65.3156 51.4688Q64.1594 52.6563 62.6125 53.3125Q61.0656 53.9688 59.3156 53.9688Q57.5656 53.9688 56.0187 53.2656Q54.4719 52.5625 53.3312 51.3438Q52.1906 50.125 51.5344 48.4688Q50.8781 46.8125 50.8781 44.875Q50.8781 42.8125 51.5344 41.1406Q52.1906 39.4688 53.3312 38.2656Q54.4719 37.0625 56.0187 36.4219Q57.5656 35.7813 59.3156 35.7813Q61.0656 35.7813 62.6125 36.4219Q64.1594 37.0625 65.3156 38.2656Q66.4719 39.4688 67.1437 41.1406ZM171.084 36.125Q170.491 35.9063 169.912 35.8438Q169.334 35.7813 168.709 35.7813Q166.959 35.7813 165.412 36.4219Q163.866 37.0625 162.725 38.25Q161.584 39.4375 160.928 41.1094Q160.272 42.7813 160.272 44.875Q160.272 45.3438 160.319 45.9375Q160.366 46.5313 160.475 47.1406Q160.584 47.75 160.741 48.3125Q160.897 48.875 161.147 49.3125L171.084 36.125Z" />
    </g>
    <g id="Group" transform="translate(225.00018 26.00003)">
      <path d="M4.99909 8.48213e-05L6.01754 0.000102102Q6.14026 0.000104184 6.26283 0.00612764Q6.3854 0.0121511 6.50752 0.0241814Q6.62965 0.0362118 6.75104 0.05422Q6.87243 0.0722282 6.99279 0.0961709Q7.11315 0.120114 7.23218 0.149933Q7.35122 0.179753 7.46866 0.215377Q7.58609 0.251002 7.70163 0.292346Q7.81718 0.333689 7.93055 0.380652Q8.04393 0.427616 8.15486 0.480085Q8.26579 0.532555 8.37402 0.590405Q8.48225 0.648255 8.5875 0.711345Q8.69276 0.774435 8.7948 0.842615Q8.89683 0.910794 8.9954 0.983897Q9.09397 1.057 9.18883 1.13485Q9.28369 1.2127 9.37461 1.29512Q9.46554 1.37753 9.55231 1.4643Q9.63909 1.55108 9.7215 1.64201Q9.80391 1.73294 9.88176 1.8278Q9.95961 1.92266 10.0327 2.02123Q10.1058 2.1198 10.174 2.22183Q10.2422 2.32387 10.3053 2.42913Q10.3683 2.53438 10.4262 2.64261Q10.484 2.75084 10.5365 2.86177Q10.589 2.97271 10.6359 3.08609Q10.6829 3.19946 10.7242 3.31501Q10.7656 3.43055 10.8012 3.54798Q10.8368 3.66542 10.8666 3.78446Q10.8965 3.90349 10.9204 4.02385Q10.9443 4.14421 10.9624 4.2656Q10.9804 4.38699 10.9924 4.50912Q11.0044 4.63124 11.0104 4.75381Q11.0165 4.87638 11.0165 4.9991L11.0165 30.0003Q11.0165 30.123 11.0104 30.2456Q11.0044 30.3682 10.9924 30.4903Q10.9804 30.6124 10.9624 30.7338Q10.9444 30.8552 10.9204 30.9756Q10.8965 31.0959 10.8667 31.215Q10.8368 31.334 10.8012 31.4514Q10.7656 31.5689 10.7242 31.6844Q10.6829 31.8 10.6359 31.9133Q10.589 32.0267 10.5365 32.1377Q10.484 32.2486 10.4262 32.3568Q10.3683 32.465 10.3053 32.5703Q10.2422 32.6756 10.174 32.7776Q10.1058 32.8796 10.0327 32.9782Q9.9596 33.0768 9.88175 33.1716Q9.80389 33.2665 9.72148 33.3574Q9.63907 33.4484 9.55229 33.5351Q9.46552 33.6219 9.37459 33.7043Q9.28366 33.7867 9.1888 33.8646Q9.09394 33.9424 8.99537 34.0155Q8.8968 34.0886 8.79476 34.1568Q8.69273 34.225 8.58747 34.2881Q8.48221 34.3512 8.37398 34.409Q8.26575 34.4669 8.15482 34.5193Q8.04388 34.5718 7.9305 34.6188Q7.81712 34.6657 7.70158 34.7071Q7.58603 34.7484 7.4686 34.784Q7.35117 34.8197 7.23212 34.8495Q7.11308 34.8793 6.99272 34.9032Q6.87236 34.9272 6.75097 34.9452Q6.62958 34.9632 6.50745 34.9752Q6.38533 34.9873 6.26276 34.9933Q6.14018 34.9993 6.01747 34.9993L4.999 34.9993Q4.87628 34.9993 4.75371 34.9933Q4.63114 34.9873 4.50901 34.9752Q4.38689 34.9632 4.2655 34.9452Q4.14411 34.9272 4.02375 34.9032Q3.90339 34.8793 3.78434 34.8495Q3.6653 34.8197 3.54787 34.784Q3.43043 34.7484 3.31489 34.7071Q3.19934 34.6657 3.08597 34.6188Q2.97259 34.5718 2.86165 34.5193Q2.75072 34.4669 2.64249 34.409Q2.53426 34.3512 2.429 34.2881Q2.32374 34.225 2.22171 34.1568Q2.11967 34.0886 2.0211 34.0155Q1.92253 33.9424 1.82767 33.8646Q1.73281 33.7867 1.64188 33.7043Q1.55095 33.6219 1.46418 33.5351Q1.3774 33.4484 1.29499 33.3574Q1.21257 33.2665 1.13472 33.1716Q1.05687 33.0768 0.983768 32.9782Q0.910665 32.8796 0.842486 32.7776Q0.774307 32.6756 0.711217 32.5703Q0.648127 32.465 0.590278 32.3568Q0.532429 32.2486 0.47996 32.1377Q0.427491 32.0267 0.380529 31.9133Q0.333566 31.8 0.292224 31.6844Q0.250881 31.5689 0.215258 31.4514Q0.179634 31.334 0.149816 31.215Q0.119998 31.0959 0.0960569 30.9756Q0.0721157 30.8552 0.0541091 30.7338Q0.0361026 30.6124 0.024074 30.4903Q0.0120455 30.3682 0.00602399 30.2456Q2.46241e-06 30.123 2.45238e-06 30.0003L4.08651e-07 4.99909Q3.9862e-07 4.87637 0.00602203 4.75379Q0.0120437 4.63122 0.0240724 4.50909Q0.0361012 4.38696 0.0541081 4.26557Q0.0721151 4.14418 0.0960568 4.02382Q0.119998 3.90346 0.149817 3.78441Q0.179636 3.66537 0.21526 3.54794Q0.250884 3.4305 0.292228 3.31496Q0.333571 3.19941 0.380535 3.08603Q0.427498 2.97265 0.479968 2.86172Q0.532438 2.75078 0.590288 2.64255Q0.648139 2.53432 0.71123 2.42906Q0.774321 2.3238 0.842501 2.22176Q0.910681 2.11973 0.983786 2.02116Q1.05689 1.92259 1.13474 1.82772Q1.2126 1.73286 1.29501 1.64193Q1.37743 1.551 1.4642 1.46423Q1.55098 1.37745 1.64191 1.29504Q1.73284 1.21263 1.82771 1.13478Q1.92257 1.05692 2.02114 0.98382Q2.11971 0.910717 2.22175 0.842539Q2.32379 0.77436 2.42905 0.711271Q2.53431 0.648181 2.64254 0.590333Q2.75077 0.532484 2.86171 0.480016Q2.97265 0.427548 3.08602 0.380587Q3.1994 0.333625 3.31495 0.292284Q3.4305 0.250942 3.54793 0.21532Q3.66537 0.179698 3.78441 0.149881Q3.90345 0.120064 4.02382 0.0961247Q4.14418 0.0721851 4.26557 0.0541802Q4.38696 0.0361753 4.50909 0.0241486Q4.63122 0.0121219 4.75379 0.0061023Q4.87637 8.2739e-05 4.99909 8.48213e-05L4.99909 8.48213e-05Z" transform="matrix(-4.371139E-08 1 -1 -4.371139E-08 34.9993 12.516876)" id="Rectangle-4" fill="url(#gradient_2)" fill-rule="evenodd" stroke="none" />
      <path d="M4.999 1.87296e-05L6.00081 1.56027e-05Q6.12353 1.52197e-05 6.2461 0.00603635Q6.36867 0.0120575 6.4908 0.0240856Q6.61293 0.0361138 6.73432 0.0541199Q6.85571 0.0721261 6.97607 0.0960669Q7.09643 0.120008 7.21547 0.149826Q7.33451 0.179643 7.45194 0.215266Q7.56938 0.250889 7.68492 0.292232Q7.80047 0.333574 7.91385 0.380536Q8.02722 0.427498 8.13816 0.479966Q8.24909 0.532435 8.35732 0.590284Q8.46555 0.648133 8.57081 0.711222Q8.67607 0.774312 8.77811 0.84249Q8.88014 0.910669 8.97871 0.983772Q9.07728 1.05687 9.17215 1.13473Q9.26701 1.21258 9.35794 1.29499Q9.44886 1.3774 9.53564 1.46418Q9.62242 1.55095 9.70483 1.64188Q9.78724 1.73281 9.8651 1.82767Q9.94295 1.92253 10.016 2.0211Q10.0892 2.11967 10.1573 2.22171Q10.2255 2.32374 10.2886 2.429Q10.3517 2.53426 10.4095 2.64249Q10.4674 2.75072 10.5199 2.86165Q10.5723 2.97259 10.6193 3.08597Q10.6663 3.19934 10.7076 3.31489Q10.7489 3.43043 10.7846 3.54787Q10.8202 3.6653 10.85 3.78434Q10.8798 3.90338 10.9038 4.02374Q10.9277 4.1441 10.9457 4.26549Q10.9637 4.38689 10.9758 4.50901Q10.9878 4.63114 10.9938 4.75371Q10.9998 4.87628 10.9998 4.999L10.9999 31.0007Q10.9999 31.1234 10.9939 31.246Q10.9879 31.3685 10.9758 31.4907Q10.9638 31.6128 10.9458 31.7342Q10.9278 31.8556 10.9039 31.9759Q10.8799 32.0963 10.8501 32.2153Q10.8203 32.3344 10.7847 32.4518Q10.749 32.5692 10.7077 32.6848Q10.6663 32.8003 10.6194 32.9137Q10.5724 33.0271 10.52 33.138Q10.4675 33.249 10.4096 33.3572Q10.3518 33.4654 10.2887 33.5707Q10.2256 33.6759 10.1574 33.778Q10.0892 33.88 10.0161 33.9786Q9.94304 34.0771 9.86519 34.172Q9.78734 34.2669 9.70493 34.3578Q9.62251 34.4487 9.53574 34.5355Q9.44896 34.6223 9.35804 34.7047Q9.26711 34.7871 9.17224 34.865Q9.07738 34.9428 8.97881 35.0159Q8.88024 35.089 8.77821 35.1572Q8.67617 35.2254 8.57091 35.2885Q8.46565 35.3516 8.35742 35.4094Q8.2492 35.4672 8.13826 35.5197Q8.02732 35.5722 7.91394 35.6192Q7.80057 35.6661 7.68502 35.7075Q7.56948 35.7488 7.45204 35.7844Q7.33461 35.82 7.21557 35.8499Q7.09653 35.8797 6.97617 35.9036Q6.8558 35.9276 6.73441 35.9456Q6.61302 35.9636 6.4909 35.9756Q6.36877 35.9876 6.2462 35.9937Q6.12362 35.9997 6.00091 35.9997L4.99912 35.9997Q4.8764 35.9997 4.75383 35.9937Q4.63126 35.9876 4.50913 35.9756Q4.38701 35.9636 4.26562 35.9456Q4.14423 35.9276 4.02387 35.9036Q3.90351 35.8797 3.78446 35.8499Q3.66542 35.82 3.54799 35.7844Q3.43056 35.7488 3.31501 35.7075Q3.19947 35.6661 3.08609 35.6192Q2.97271 35.5722 2.86178 35.5197Q2.75084 35.4673 2.64261 35.4094Q2.53439 35.3516 2.42913 35.2885Q2.32387 35.2254 2.22183 35.1572Q2.11979 35.089 2.02123 35.0159Q1.92266 34.9428 1.82779 34.865Q1.73293 34.7871 1.642 34.7047Q1.55107 34.6223 1.4643 34.5355Q1.37752 34.4487 1.29511 34.3578Q1.2127 34.2669 1.13485 34.172Q1.057 34.0772 0.983892 33.9786Q0.910789 33.88 0.84261 33.778Q0.774431 33.676 0.711341 33.5707Q0.648251 33.4654 0.590402 33.3572Q0.532553 33.249 0.480083 33.138Q0.427614 33.0271 0.380652 32.9137Q0.333689 32.8003 0.292346 32.6848Q0.251003 32.5693 0.21538 32.4518Q0.179756 32.3344 0.149938 32.2154Q0.120119 32.0963 0.0961776 31.9759Q0.072236 31.8556 0.0542291 31.7342Q0.0362222 31.6128 0.0241932 31.4907Q0.0121643 31.3686 0.00614234 31.246Q0.000120376 31.1234 0.000119902 31.0007L1.93347e-05 4.99904Q1.88601e-05 4.87632 0.00603991 4.75375Q0.012061 4.63118 0.024089 4.50905Q0.0361171 4.38692 0.0541232 4.26553Q0.0721293 4.14414 0.09607 4.02378Q0.120011 3.90342 0.149829 3.78438Q0.179646 3.66534 0.215269 3.5479Q0.250892 3.43047 0.292234 3.31492Q0.333577 3.19938 0.380539 3.086Q0.427501 2.97262 0.479969 2.86169Q0.532438 2.75075 0.590286 2.64252Q0.648135 2.53429 0.711225 2.42903Q0.774314 2.32378 0.842493 2.22174Q0.910671 2.1197 0.983774 2.02113Q1.05688 1.92256 1.13473 1.8277Q1.21258 1.73284 1.29499 1.64191Q1.37741 1.55098 1.46418 1.4642Q1.55096 1.37743 1.64188 1.29502Q1.73281 1.2126 1.82767 1.13475Q1.92254 1.0569 2.02111 0.983794Q2.11967 0.910691 2.22171 0.842512Q2.32375 0.774332 2.42901 0.711242Q2.53426 0.648152 2.64249 0.590302Q2.75072 0.532453 2.86166 0.479983Q2.97259 0.427514 3.08597 0.380551Q3.19935 0.333588 3.31489 0.292245Q3.43044 0.250902 3.54787 0.215279Q3.66531 0.179655 3.78435 0.149836Q3.90339 0.120018 4.02375 0.0960762Q4.14411 0.0721346 4.2655 0.0541277Q4.38689 0.0361207 4.50902 0.0240918Q4.63114 0.0120629 4.75371 0.00604102Q4.87629 1.91126e-05 4.999 1.87296e-05Z" transform="matrix(-1 8.742278E-08 -8.742278E-08 -1 22.999084 35.999664)" id="Rectangle-3" fill="url(#gradient_3)" fill-rule="evenodd" stroke="none" />
    </g>
  </g>
</svg>