<?xml version="1.0" encoding="utf-8"?>
<svg width="512px" height="512px" viewbox="0 0 512 512" version="1.1" xmlns:xlink="http://www.w3.org/1999/xlink" xmlns="http://www.w3.org/2000/svg">
  <defs>
    <linearGradient x1="0.91846704" y1="0.5" x2="0.07936165" y2="0.7853973" id="gradient_1">
      <stop offset="0" stop-color="#599DF4" />
      <stop offset="1" stop-color="#007EFF" />
    </linearGradient>
    <linearGradient x1="0.99999875" y1="0.64046645" x2="-0.821246" y2="-0.019932872" id="gradient_2">
      <stop offset="0" stop-color="#017FFF" />
      <stop offset="1" stop-color="#599DF4" />
    </linearGradient>
    <linearGradient x1="0.9999996" y1="0.19075038" x2="-0.728956" y2="0.70087993" id="gradient_3">
      <stop offset="0" stop-color="#007EFF" />
      <stop offset="1" stop-color="#599DF4" />
    </linearGradient>
  </defs>
  <g id="Group-3">
    <g id="Group-2">
      <path d="M44.999 0L467.001 0Q468.106 0 469.209 0.0542033Q470.312 0.108407 471.412 0.216682Q472.511 0.324958 473.604 0.487046Q474.696 0.649134 475.78 0.864643Q476.863 1.08015 477.935 1.34856Q479.006 1.61697 480.064 1.93764Q481.121 2.25831 482.161 2.63046Q483.201 3.00261 484.221 3.42534Q485.242 3.84808 486.241 4.32039Q487.239 4.79269 488.213 5.31342Q489.188 5.83416 490.135 6.40207Q491.083 6.96998 492.001 7.5837Q492.92 8.19742 493.807 8.85546Q494.694 9.51351 495.548 10.2143Q496.402 10.9151 497.22 11.6569Q498.039 12.3988 498.82 13.1799Q499.601 13.961 500.343 14.7795Q501.085 15.598 501.786 16.4519Q502.486 17.3059 503.144 18.1931Q503.802 19.0804 504.416 19.9989Q505.03 20.9174 505.598 21.8649Q506.166 22.8124 506.687 23.7866Q507.207 24.7608 507.68 25.7594Q508.152 26.7581 508.575 27.7786Q508.997 28.7992 509.369 29.8393Q509.742 30.8794 510.062 31.9365Q510.383 32.9936 510.651 34.0651Q510.92 35.1367 511.135 36.2201Q511.351 37.3036 511.513 38.3963Q511.675 39.489 511.783 40.5883Q511.892 41.6877 511.946 42.791Q512 43.8943 512 44.999L512 467.001Q512 468.106 511.946 469.209Q511.892 470.312 511.783 471.412Q511.675 472.511 511.513 473.604Q511.351 474.696 511.135 475.78Q510.92 476.863 510.651 477.935Q510.383 479.006 510.062 480.064Q509.742 481.121 509.369 482.161Q508.997 483.201 508.575 484.221Q508.152 485.242 507.68 486.241Q507.207 487.239 506.687 488.213Q506.166 489.188 505.598 490.135Q505.03 491.083 504.416 492.001Q503.802 492.92 503.144 493.807Q502.486 494.694 501.786 495.548Q501.085 496.402 500.343 497.22Q499.601 498.039 498.82 498.82Q498.039 499.601 497.22 500.343Q496.402 501.085 495.548 501.786Q494.694 502.486 493.807 503.144Q492.92 503.802 492.001 504.416Q491.083 505.03 490.135 505.598Q489.188 506.166 488.213 506.687Q487.239 507.207 486.241 507.68Q485.242 508.152 484.221 508.575Q483.201 508.997 482.161 509.369Q481.121 509.742 480.064 510.062Q479.006 510.383 477.935 510.651Q476.863 510.92 475.78 511.135Q474.696 511.351 473.604 511.513Q472.511 511.675 471.412 511.783Q470.312 511.892 469.209 511.946Q468.106 512 467.001 512L44.999 512Q43.8943 512 42.791 511.946Q41.6877 511.892 40.5883 511.783Q39.489 511.675 38.3963 511.513Q37.3036 511.351 36.2201 511.135Q35.1367 510.92 34.0651 510.651Q32.9936 510.383 31.9365 510.062Q30.8794 509.742 29.8393 509.369Q28.7992 508.997 27.7786 508.575Q26.7581 508.152 25.7594 507.68Q24.7608 507.207 23.7866 506.687Q22.8124 506.166 21.8649 505.598Q20.9174 505.03 19.9989 504.416Q19.0804 503.802 18.1931 503.144Q17.3059 502.486 16.4519 501.786Q15.598 501.085 14.7795 500.343Q13.961 499.601 13.1799 498.82Q12.3988 498.039 11.6569 497.22Q10.9151 496.402 10.2143 495.548Q9.51351 494.694 8.85546 493.807Q8.19742 492.92 7.5837 492.001Q6.96998 491.083 6.40207 490.135Q5.83416 489.188 5.31342 488.213Q4.79269 487.239 4.32039 486.241Q3.84808 485.242 3.42534 484.221Q3.00261 483.201 2.63046 482.161Q2.25831 481.121 1.93764 480.064Q1.61697 479.006 1.34856 477.935Q1.08015 476.863 0.864643 475.78Q0.649134 474.696 0.487046 473.604Q0.324958 472.511 0.216682 471.412Q0.108407 470.312 0.0542033 469.209Q0 468.106 0 467.001L0 44.999Q0 43.8943 0.0542033 42.791Q0.108407 41.6877 0.216682 40.5883Q0.324958 39.489 0.487046 38.3963Q0.649134 37.3036 0.864643 36.2201Q1.08015 35.1367 1.34856 34.0651Q1.61697 32.9936 1.93764 31.9365Q2.25831 30.8794 2.63046 29.8393Q3.00261 28.7992 3.42534 27.7786Q3.84808 26.7581 4.32039 25.7594Q4.79269 24.7608 5.31342 23.7866Q5.83416 22.8124 6.40207 21.8649Q6.96998 20.9174 7.5837 19.9989Q8.19742 19.0804 8.85546 18.1931Q9.51351 17.3059 10.2143 16.4519Q10.9151 15.598 11.6569 14.7795Q12.3988 13.961 13.1799 13.1799Q13.961 12.3988 14.7795 11.6569Q15.598 10.9151 16.4519 10.2143Q17.3059 9.51351 18.1931 8.85546Q19.0804 8.19742 19.9989 7.5837Q20.9174 6.96998 21.8649 6.40207Q22.8124 5.83416 23.7866 5.31342Q24.7608 4.79269 25.7594 4.32039Q26.7581 3.84808 27.7786 3.42534Q28.7992 3.00261 29.8393 2.63046Q30.8794 2.25831 31.9365 1.93764Q32.9936 1.61697 34.0651 1.34856Q35.1367 1.08015 36.2201 0.864643Q37.3036 0.649134 38.3963 0.487046Q39.489 0.324958 40.5883 0.216682Q41.6877 0.108407 42.791 0.0542033Q43.8943 0 44.999 0Z" id="Rectangle" fill="#FFFFFF" fill-rule="evenodd" stroke="none" />
      <g fill="url(#gradient_1)" stroke="none" id="Y" transform="translate(0.45043945 27.195908)">
        <path d="M185.78 369.037L132.714 369.037L132.714 285.727Q115.087 281.273 100.336 271.439Q85.5846 261.605 75.0085 247.968Q64.4323 234.33 58.5876 217.724Q52.7428 201.117 52.7428 182.748L52.7428 102.963L105.995 102.963L105.995 182.748Q105.995 193.695 110.17 203.437Q114.344 213.178 121.581 220.414Q128.817 227.65 138.558 231.825Q148.299 236 159.247 236Q170.194 236 179.935 231.825Q189.676 227.65 196.913 220.414Q204.149 213.178 208.324 203.437Q212.499 193.695 212.499 182.748L212.499 102.963L265.565 102.963L265.565 182.748Q265.565 201.117 259.72 217.724Q253.876 234.33 243.299 247.968Q232.723 261.605 218.065 271.439Q203.407 281.273 185.78 285.727L185.78 369.037Z" />
      </g>
    </g>
    <g id="Group" transform="translate(284.28586 176.80481)">
      <path d="M34.4748 0.000518784L34.4768 0.000518814Q35.3231 0.000531549 36.1684 0.0420696Q37.0137 0.0836077 37.8559 0.166571Q38.6981 0.249534 39.5352 0.373723Q40.3724 0.497912 41.2024 0.663027Q42.0324 0.828142 42.8533 1.03379Q43.6743 1.23943 44.4841 1.48511Q45.294 1.73078 46.0908 2.0159Q46.8876 2.30102 47.6695 2.62489Q48.4513 2.94876 49.2164 3.31061Q49.9814 3.67245 50.7278 4.0714Q51.4741 4.47035 52.2 4.90544Q52.9259 5.34053 53.6296 5.81071Q54.3332 6.2809 55.013 6.78504Q55.6927 7.28918 56.3469 7.82607Q57.0011 8.36296 57.6282 8.9313Q58.2552 9.49965 58.8536 10.0981Q59.452 10.6965 60.0204 11.3236Q60.5887 11.9506 61.1256 12.6048Q61.6625 13.259 62.1666 13.9388Q62.6707 14.6185 63.1409 15.3222Q63.6111 16.0259 64.0461 16.7518Q64.4812 17.4777 64.8801 18.224Q65.2791 18.9704 65.6409 19.7354Q66.0027 20.5005 66.3266 21.2824Q66.6505 22.0642 66.9356 22.8611Q67.2207 23.6579 67.4663 24.4677Q67.712 25.2776 67.9176 26.0985Q68.1232 26.9195 68.2883 27.7495Q68.4534 28.5795 68.5776 29.4167Q68.7018 30.2538 68.7847 31.096Q68.8677 31.9382 68.9092 32.7835Q68.9507 33.6288 68.9507 34.4751L68.9503 159.876Q68.9503 160.722 68.9088 161.568Q68.8672 162.413 68.7843 163.255Q68.7013 164.097 68.5771 164.934Q68.453 165.771 68.2879 166.602Q68.1227 167.432 67.9171 168.252Q67.7115 169.073 67.4658 169.883Q67.2201 170.693 66.935 171.49Q66.6499 172.287 66.3261 173.069Q66.0022 173.85 65.6404 174.616Q65.2785 175.381 64.8796 176.127Q64.4806 176.873 64.0456 177.599Q63.6105 178.325 63.1403 179.029Q62.6701 179.732 62.166 180.412Q61.6618 181.092 61.125 181.746Q60.5881 182.4 60.0197 183.027Q59.4514 183.654 58.853 184.253Q58.2546 184.851 57.6275 185.42Q57.0004 185.988 56.3463 186.525Q55.6921 187.062 55.0123 187.566Q54.3326 188.07 53.6289 188.54Q52.9252 189.01 52.1993 189.445Q51.4734 189.88 50.7271 190.279Q49.9807 190.678 49.2157 191.04Q48.4506 191.402 47.6688 191.726Q46.8869 192.05 46.0901 192.335Q45.2932 192.62 44.4834 192.866Q43.6735 193.111 42.8526 193.317Q42.0317 193.522 41.2017 193.688Q40.3716 193.853 39.5345 193.977Q38.6974 194.101 37.8551 194.184Q37.0129 194.267 36.1677 194.308Q35.3224 194.35 34.4761 194.35L34.4741 194.35Q33.6278 194.35 32.7825 194.308Q31.9373 194.267 31.095 194.184Q30.2528 194.101 29.4157 193.977Q28.5786 193.853 27.7485 193.688Q26.9185 193.522 26.0976 193.317Q25.2767 193.111 24.4668 192.866Q23.657 192.62 22.8601 192.335Q22.0633 192.05 21.2814 191.726Q20.4996 191.402 19.7345 191.04Q18.9695 190.678 18.2231 190.279Q17.4768 189.88 16.7509 189.445Q16.025 189.01 15.3213 188.54Q14.6177 188.07 13.9379 187.566Q13.2582 187.062 12.604 186.525Q11.9498 185.988 11.3227 185.42Q10.6957 184.851 10.0973 184.253Q9.49886 183.654 8.93053 183.027Q8.36219 182.4 7.82531 181.746Q7.28843 181.092 6.7843 180.412Q6.28017 179.732 5.81 179.029Q5.33983 178.325 4.90475 177.599Q4.46967 176.873 4.07073 176.127Q3.6718 175.381 3.30996 174.615Q2.94813 173.85 2.62427 173.069Q2.30041 172.287 2.01531 171.49Q1.7302 170.693 1.48454 169.883Q1.23888 169.073 1.03325 168.252Q0.827622 167.432 0.662522 166.601Q0.497422 165.771 0.373248 164.934Q0.249075 164.097 0.166127 163.255Q0.0831791 162.413 0.0416569 161.567Q0.000134649 160.722 0.000138038 159.876L0.000640161 34.474Q0.000643549 33.6278 0.0421725 32.7825Q0.0837015 31.9372 0.166656 31.095Q0.249611 30.2528 0.373791 29.4157Q0.497971 28.5785 0.663078 27.7485Q0.828185 26.9185 1.03382 26.0976Q1.23946 25.2766 1.48512 24.4668Q1.73079 23.657 2.0159 22.8601Q2.30101 22.0633 2.62488 21.2815Q2.94875 20.4996 3.31059 19.7346Q3.67242 18.9695 4.07137 18.2232Q4.47031 17.4768 4.90539 16.7509Q5.34048 16.0251 5.81065 15.3214Q6.28083 14.6177 6.78497 13.938Q7.28911 13.2583 7.82599 12.6041Q8.36288 11.9499 8.93121 11.3228Q9.49955 10.6958 10.098 10.0974Q10.6964 9.49898 11.3235 8.93065Q11.9505 8.36233 12.6047 7.82546Q13.2589 7.28858 13.9387 6.78446Q14.6184 6.28033 15.3221 5.81017Q16.0257 5.34 16.7516 4.90493Q17.4775 4.46986 18.2239 4.07094Q18.9702 3.67201 19.7353 3.31018Q20.5003 2.94836 21.2822 2.62451Q22.0641 2.30066 22.8609 2.01556Q23.6577 1.73047 24.4676 1.48481Q25.2774 1.23916 26.0983 1.03354Q26.9193 0.827919 27.7493 0.662829Q28.5793 0.497737 29.4164 0.373573Q30.2536 0.249409 31.0958 0.16647Q31.938 0.0835318 32.7833 0.0420189Q33.6285 0.000506048 34.4748 0.000518784L34.4748 0.000518784Z" transform="matrix(-4.371139E-08 1 -1 -4.371139E-08 194.35 62.6996)" id="Rectangle-4" fill="url(#gradient_2)" fill-rule="evenodd" stroke="none" />
      <path d="M30.5403 0.000185708L30.5423 0.000185696Q31.292 0.000181138 32.0408 0.0369637Q32.7896 0.0737463 33.5358 0.147227Q34.2819 0.220709 35.0235 0.330711Q35.7651 0.440714 36.5004 0.586973Q37.2357 0.733232 37.963 0.915396Q38.6902 1.09756 39.4077 1.31519Q40.1251 1.53282 40.831 1.78539Q41.5369 2.03796 42.2295 2.32486Q42.9222 2.61176 43.5999 2.9323Q44.2777 3.25285 44.9389 3.60626Q45.6001 3.95967 46.2431 4.3451Q46.8862 4.73053 47.5096 5.14705Q48.1329 5.56357 48.7351 6.01018Q49.3373 6.45678 49.9168 6.9324Q50.4964 7.40801 51.0519 7.91149Q51.6074 8.41497 52.1375 8.9451Q52.6677 9.47523 53.1712 10.0307Q53.6746 10.5862 54.1503 11.1658Q54.6259 11.7453 55.0725 12.3475Q55.5191 12.9497 55.9356 13.5731Q56.3522 14.1964 56.7376 14.8395Q57.123 15.4825 57.4764 16.1437Q57.8299 16.8049 58.1504 17.4827Q58.471 18.1604 58.7579 18.853Q59.0448 19.5457 59.2973 20.2516Q59.5499 20.9575 59.7676 21.6749Q59.9852 22.3924 60.1674 23.1196Q60.3495 23.8469 60.4958 24.5822Q60.6421 25.3175 60.7521 26.0591Q60.8621 26.8007 60.9356 27.5468Q61.009 28.2929 61.0458 29.0417Q61.0826 29.7906 61.0826 30.5403L61.0829 163.809Q61.0829 164.559 61.0461 165.308Q61.0093 166.057 60.9358 166.803Q60.8624 167.549 60.7523 168.291Q60.6423 169.032 60.4961 169.768Q60.3498 170.503 60.1677 171.23Q59.9855 171.957 59.7679 172.675Q59.5502 173.392 59.2977 174.098Q59.0451 174.804 58.7582 175.497Q58.4713 176.189 58.1507 176.867Q57.8302 177.545 57.4768 178.206Q57.1234 178.867 56.7379 179.51Q56.3525 180.153 55.936 180.777Q55.5195 181.4 55.0728 182.002Q54.6262 182.604 54.1506 183.184Q53.675 183.764 53.1715 184.319Q52.668 184.875 52.1379 185.405Q51.6078 185.935 51.0523 186.438Q50.4968 186.942 49.9172 187.417Q49.3377 187.893 48.7355 188.34Q48.1333 188.786 47.51 189.203Q46.8866 189.619 46.2435 190.005Q45.6005 190.39 44.9393 190.744Q44.2781 191.097 43.6004 191.418Q42.9226 191.738 42.23 192.025Q41.5373 192.312 40.8314 192.565Q40.1255 192.817 39.4081 193.035Q38.6907 193.252 37.9634 193.435Q37.2362 193.617 36.5008 193.763Q35.7655 193.909 35.0239 194.019Q34.2823 194.129 33.5362 194.203Q32.7901 194.276 32.0413 194.313Q31.2925 194.35 30.5427 194.35L30.5407 194.35Q29.791 194.35 29.0422 194.313Q28.2934 194.276 27.5473 194.203Q26.8012 194.129 26.0596 194.019Q25.318 193.909 24.5827 193.763Q23.8473 193.617 23.1201 193.435Q22.3928 193.252 21.6754 193.035Q20.958 192.817 20.2521 192.565Q19.5462 192.312 18.8535 192.025Q18.1609 191.738 17.4831 191.418Q16.8054 191.097 16.1442 190.744Q15.483 190.39 14.8399 190.005Q14.1969 189.62 13.5735 189.203Q12.9501 188.786 12.348 188.34Q11.7458 187.893 11.1662 187.418Q10.5867 186.942 10.0312 186.439Q9.47567 185.935 8.94553 185.405Q8.4154 184.875 7.91192 184.319Q7.40844 183.764 6.93282 183.184Q6.4572 182.605 6.01059 182.003Q5.56398 181.4 5.14745 180.777Q4.73093 180.154 4.34549 179.511Q3.96006 178.868 3.60664 178.206Q3.25322 177.545 2.93268 176.867Q2.61213 176.19 2.32522 175.497Q2.03831 174.804 1.78574 174.098Q1.53316 173.393 1.31553 172.675Q1.09789 171.958 0.915723 171.23Q0.733554 170.503 0.587289 169.768Q0.441023 169.033 0.331014 168.291Q0.221005 167.549 0.147518 166.803Q0.0740304 166.057 0.0372413 165.308Q0.000452196 164.56 0.000450135 163.81L8.39223e-05 30.5407Q8.18621e-05 29.7909 0.0368669 29.0421Q0.0736519 28.2933 0.147135 27.5472Q0.220619 26.8011 0.330624 26.0595Q0.440629 25.3179 0.58689 24.5825Q0.733151 23.8472 0.915317 23.12Q1.09748 22.3927 1.31511 21.6753Q1.53274 20.9578 1.78531 20.2519Q2.03789 19.546 2.32479 18.8534Q2.61169 18.1607 2.93224 17.483Q3.25278 16.8052 3.6062 16.144Q3.95961 15.4828 4.34505 14.8398Q4.73048 14.1967 5.147 13.5733Q5.56352 12.95 6.01013 12.3478Q6.45673 11.7456 6.93235 11.1661Q7.40797 10.5865 7.91145 10.031Q8.41493 9.47549 8.94506 8.94535Q9.47519 8.41521 10.0307 7.91173Q10.5862 7.40824 11.1657 6.93262Q11.7453 6.457 12.3475 6.01039Q12.9496 5.56378 13.573 5.14725Q14.1964 4.73072 14.8394 4.34529Q15.4825 3.95985 16.1437 3.60643Q16.8049 3.25301 17.4826 2.93246Q18.1604 2.61191 18.853 2.325Q19.5457 2.03808 20.2516 1.78551Q20.9575 1.53293 21.6749 1.31529Q22.3923 1.09766 23.1196 0.915484Q23.8469 0.733312 24.5822 0.587044Q25.3175 0.440776 26.0591 0.330765Q26.8007 0.220754 27.5468 0.147264Q28.2929 0.0737735 29.0417 0.0369819Q29.7906 0.000190267 30.5403 0.000185708L30.5403 0.000185708Z" transform="matrix(-1 8.742278E-08 -8.742278E-08 -1 127.71225 194.35)" id="Rectangle-3" fill="url(#gradient_3)" fill-rule="evenodd" stroke="none" />
    </g>
  </g>
</svg>